<?xml version="1.0" standalone="no"?>
<!DOCTYPE svg PUBLIC "-//W3C//DTD SVG 20010904//EN"
 "http://www.w3.org/TR/2001/REC-SVG-20010904/DTD/svg10.dtd">
<svg version="1.0" xmlns="http://www.w3.org/2000/svg"
 width="260.000000pt" height="260.000000pt" viewBox="0 0 260.000000 260.000000"
 preserveAspectRatio="xMidYMid meet">
<metadata>
Created by potrace 1.11, written by Peter Selinger 2001-2013
</metadata>
<g transform="translate(0.000000,260.000000) scale(0.100000,-0.100000)"
fill="#000000" stroke="none">
<path d="M0 1300 l0 -1300 1300 0 1300 0 0 1300 0 1300 -1300 0 -1300 0 0
-1300z m1690 960 c0 -15 -7 -20 -25 -20 -20 0 -25 -5 -25 -25 0 -18 -5 -25
-20 -25 -17 0 -20 -7 -20 -45 0 -41 -2 -45 -25 -45 l-25 0 0 -115 0 -115 70 0
c68 0 70 1 70 25 0 24 2 25 65 25 58 0 65 2 65 20 0 19 7 20 230 20 223 0 230
-1 230 -20 0 -17 -7 -20 -45 -20 -41 0 -45 -2 -45 -25 0 -20 -5 -25 -25 -25
-20 0 -25 -5 -25 -25 0 -18 -5 -25 -20 -25 -13 0 -20 -7 -20 -20 0 -15 -7 -20
-25 -20 -25 0 -25 -1 -25 -90 0 -89 0 -90 25 -90 23 0 25 -4 25 -45 0 -41 -2
-45 -25 -45 -24 0 -25 -2 -25 -70 0 -63 -2 -70 -20 -70 -15 0 -20 -7 -20 -25
0 -20 -5 -25 -25 -25 -18 0 -25 -5 -25 -20 0 -18 -7 -20 -70 -20 -68 0 -70 -1
-70 -25 0 -18 -5 -25 -20 -25 -15 0 -20 7 -20 25 0 18 5 25 20 25 18 0 20 7
20 65 0 58 -2 65 -20 65 -19 0 -20 7 -20 95 0 88 1 95 20 95 13 0 20 7 20 20
0 18 -7 20 -65 20 -58 0 -65 -2 -65 -20 0 -17 -7 -20 -45 -20 -41 0 -45 -2
-45 -25 0 -20 -5 -25 -25 -25 -18 0 -25 -5 -25 -20 0 -17 -7 -20 -45 -20 -41
0 -45 -2 -45 -25 0 -20 -5 -25 -25 -25 -20 0 -25 5 -25 25 0 18 -5 25 -20 25
-13 0 -20 7 -20 20 0 15 -7 20 -25 20 -25 0 -25 1 -25 90 l0 90 -45 0 c-38 0
-45 -3 -45 -20 0 -13 -7 -20 -20 -20 -15 0 -20 -7 -20 -25 0 -20 -5 -25 -25
-25 -18 0 -25 -5 -25 -20 0 -15 -7 -20 -25 -20 -20 0 -25 -5 -25 -25 0 -18 -5
-25 -20 -25 -17 0 -20 -7 -20 -45 l0 -45 -70 0 c-68 0 -70 1 -70 25 0 18 -5
25 -20 25 -13 0 -20 7 -20 20 0 17 -7 20 -45 20 -41 0 -45 2 -45 25 0 20 -5
25 -25 25 -23 0 -25 -4 -25 -45 0 -41 -2 -45 -25 -45 -25 0 -25 0 -25 -95 0
-95 0 -95 25 -95 23 0 25 -4 25 -45 0 -41 -2 -45 -25 -45 -20 0 -25 5 -25 25
0 24 -2 25 -65 25 -58 0 -65 2 -65 20 0 15 -7 20 -25 20 -20 0 -25 5 -25 25 0
18 -5 25 -20 25 -13 0 -20 7 -20 20 0 15 -7 20 -25 20 l-25 0 0 205 0 205 25
0 c23 0 25 3 25 50 0 43 3 50 20 50 13 0 20 7 20 20 0 15 7 20 25 20 20 0 25
5 25 25 0 18 5 25 20 25 13 0 20 7 20 20 0 15 7 20 25 20 20 0 25 5 25 25 0
18 5 25 20 25 13 0 20 7 20 20 0 17 7 20 50 20 43 0 50 -3 50 -20 0 -15 -7
-20 -25 -20 l-25 0 0 -115 0 -115 25 0 c20 0 25 -5 25 -25 0 -18 5 -25 20 -25
13 0 20 -7 20 -20 0 -15 7 -20 25 -20 18 0 25 5 25 20 0 13 7 20 20 20 15 0
20 7 20 25 0 20 5 25 25 25 23 0 25 4 25 45 0 38 3 45 20 45 15 0 20 7 20 25
0 20 5 25 25 25 18 0 25 5 25 20 0 13 7 20 20 20 15 0 20 7 20 25 0 23 3 25
50 25 43 0 50 3 50 20 0 13 7 20 20 20 15 0 20 7 20 25 0 23 4 25 45 25 41 0
45 2 45 25 0 24 2 25 70 25 63 0 70 2 70 20 0 19 7 20 115 20 108 0 115 -1
115 -20z m130 -1190 c0 -15 7 -20 25 -20 20 0 25 -5 25 -25 0 -20 -5 -25 -25
-25 -18 0 -25 -5 -25 -20 0 -20 -7 -20 -520 -20 -513 0 -520 0 -520 20 0 15
-7 20 -25 20 -20 0 -25 5 -25 25 0 20 5 25 25 25 18 0 25 5 25 20 0 20 7 20
520 20 513 0 520 0 520 -20z m-130 -360 l0 -70 -390 0 -390 0 0 70 0 70 390 0
390 0 0 -70z m-180 -230 c0 -13 7 -20 20 -20 17 0 20 -7 20 -50 0 -43 -3 -50
-20 -50 -13 0 -20 -7 -20 -20 0 -19 -7 -20 -210 -20 -203 0 -210 1 -210 20 0
13 -7 20 -20 20 -17 0 -20 7 -20 50 0 43 3 50 20 50 13 0 20 7 20 20 0 19 7
20 210 20 203 0 210 -1 210 -20z"/>
</g>
</svg>
